<?xml version="1.0" encoding="utf-8"?>
<svg xmlns="http://www.w3.org/2000/svg" xmlns:xlink="http://www.w3.org/1999/xlink" width="300" height="200" viewBox="0 0 1200 800">
<defs>
  <clipPath id="clip850">
    <rect x="0" y="0" width="1200" height="800"/>
  </clipPath>
</defs>
<path clip-path="url(#clip850)" d="
M0 800 L1200 800 L1200 0 L0 0  Z
  " fill="#ffffff" fill-rule="evenodd" fill-opacity="1"/>
<defs>
  <clipPath id="clip851">
    <rect x="240" y="0" width="841" height="800"/>
  </clipPath>
</defs>
<defs>
  <clipPath id="clip852">
    <rect x="888" y="450" width="289" height="293"/>
  </clipPath>
</defs>
<path clip-path="url(#clip850)" d="
M228.902 639.82 L1152.76 639.82 L1152.76 47.2441 L228.902 47.2441  Z
  " fill="#ffffff" fill-rule="evenodd" fill-opacity="1"/>
<defs>
  <clipPath id="clip853">
    <rect x="228" y="47" width="925" height="594"/>
  </clipPath>
</defs>
<polyline clip-path="url(#clip853)" style="stroke:#000000; stroke-linecap:butt; stroke-linejoin:round; stroke-width:2; stroke-opacity:0.1; fill:none" stroke-dasharray="1, 2" points="
  255.049,639.82 255.049,47.2441 
  "/>
<polyline clip-path="url(#clip853)" style="stroke:#000000; stroke-linecap:butt; stroke-linejoin:round; stroke-width:2; stroke-opacity:0.1; fill:none" stroke-dasharray="1, 2" points="
  545.569,639.82 545.569,47.2441 
  "/>
<polyline clip-path="url(#clip853)" style="stroke:#000000; stroke-linecap:butt; stroke-linejoin:round; stroke-width:2; stroke-opacity:0.1; fill:none" stroke-dasharray="1, 2" points="
  836.089,639.82 836.089,47.2441 
  "/>
<polyline clip-path="url(#clip853)" style="stroke:#000000; stroke-linecap:butt; stroke-linejoin:round; stroke-width:2; stroke-opacity:0.1; fill:none" stroke-dasharray="1, 2" points="
  1126.61,639.82 1126.61,47.2441 
  "/>
<polyline clip-path="url(#clip850)" style="stroke:#000000; stroke-linecap:butt; stroke-linejoin:round; stroke-width:4; stroke-opacity:1; fill:none" points="
  228.902,639.82 1152.76,639.82 
  "/>
<polyline clip-path="url(#clip850)" style="stroke:#000000; stroke-linecap:butt; stroke-linejoin:round; stroke-width:4; stroke-opacity:1; fill:none" points="
  228.902,47.2441 1152.76,47.2441 
  "/>
<polyline clip-path="url(#clip850)" style="stroke:#000000; stroke-linecap:butt; stroke-linejoin:round; stroke-width:4; stroke-opacity:1; fill:none" points="
  255.049,639.82 255.049,620.922 
  "/>
<polyline clip-path="url(#clip850)" style="stroke:#000000; stroke-linecap:butt; stroke-linejoin:round; stroke-width:4; stroke-opacity:1; fill:none" points="
  545.569,639.82 545.569,620.922 
  "/>
<polyline clip-path="url(#clip850)" style="stroke:#000000; stroke-linecap:butt; stroke-linejoin:round; stroke-width:4; stroke-opacity:1; fill:none" points="
  836.089,639.82 836.089,620.922 
  "/>
<polyline clip-path="url(#clip850)" style="stroke:#000000; stroke-linecap:butt; stroke-linejoin:round; stroke-width:4; stroke-opacity:1; fill:none" points="
  1126.61,639.82 1126.61,620.922 
  "/>
<path clip-path="url(#clip850)" d="M232.433 661.139 Q228.822 661.139 226.993 664.703 Q225.188 668.245 225.188 675.375 Q225.188 682.481 226.993 686.046 Q228.822 689.587 232.433 689.587 Q236.067 689.587 237.873 686.046 Q239.702 682.481 239.702 675.375 Q239.702 668.245 237.873 664.703 Q236.067 661.139 232.433 661.139 M232.433 657.435 Q238.243 657.435 241.299 662.041 Q244.378 666.625 244.378 675.375 Q244.378 684.101 241.299 688.708 Q238.243 693.291 232.433 693.291 Q226.623 693.291 223.544 688.708 Q220.489 684.101 220.489 675.375 Q220.489 666.625 223.544 662.041 Q226.623 657.435 232.433 657.435 Z" fill="#000000" fill-rule="evenodd" fill-opacity="1" /><path clip-path="url(#clip850)" d="M252.595 686.74 L257.479 686.74 L257.479 692.62 L252.595 692.62 L252.595 686.74 Z" fill="#000000" fill-rule="evenodd" fill-opacity="1" /><path clip-path="url(#clip850)" d="M277.664 661.139 Q274.053 661.139 272.225 664.703 Q270.419 668.245 270.419 675.375 Q270.419 682.481 272.225 686.046 Q274.053 689.587 277.664 689.587 Q281.299 689.587 283.104 686.046 Q284.933 682.481 284.933 675.375 Q284.933 668.245 283.104 664.703 Q281.299 661.139 277.664 661.139 M277.664 657.435 Q283.475 657.435 286.53 662.041 Q289.609 666.625 289.609 675.375 Q289.609 684.101 286.53 688.708 Q283.475 693.291 277.664 693.291 Q271.854 693.291 268.776 688.708 Q265.72 684.101 265.72 675.375 Q265.72 666.625 268.776 662.041 Q271.854 657.435 277.664 657.435 Z" fill="#000000" fill-rule="evenodd" fill-opacity="1" /><path clip-path="url(#clip850)" d="M523.567 661.139 Q519.956 661.139 518.127 664.703 Q516.321 668.245 516.321 675.375 Q516.321 682.481 518.127 686.046 Q519.956 689.587 523.567 689.587 Q527.201 689.587 529.007 686.046 Q530.835 682.481 530.835 675.375 Q530.835 668.245 529.007 664.703 Q527.201 661.139 523.567 661.139 M523.567 657.435 Q529.377 657.435 532.432 662.041 Q535.511 666.625 535.511 675.375 Q535.511 684.101 532.432 688.708 Q529.377 693.291 523.567 693.291 Q517.757 693.291 514.678 688.708 Q511.622 684.101 511.622 675.375 Q511.622 666.625 514.678 662.041 Q517.757 657.435 523.567 657.435 Z" fill="#000000" fill-rule="evenodd" fill-opacity="1" /><path clip-path="url(#clip850)" d="M543.729 686.74 L548.613 686.74 L548.613 692.62 L543.729 692.62 L543.729 686.74 Z" fill="#000000" fill-rule="evenodd" fill-opacity="1" /><path clip-path="url(#clip850)" d="M559.608 688.685 L567.247 688.685 L567.247 662.319 L558.937 663.986 L558.937 659.727 L567.201 658.06 L571.877 658.06 L571.877 688.685 L579.516 688.685 L579.516 692.62 L559.608 692.62 L559.608 688.685 Z" fill="#000000" fill-rule="evenodd" fill-opacity="1" /><path clip-path="url(#clip850)" d="M814.272 661.139 Q810.661 661.139 808.832 664.703 Q807.027 668.245 807.027 675.375 Q807.027 682.481 808.832 686.046 Q810.661 689.587 814.272 689.587 Q817.906 689.587 819.712 686.046 Q821.54 682.481 821.54 675.375 Q821.54 668.245 819.712 664.703 Q817.906 661.139 814.272 661.139 M814.272 657.435 Q820.082 657.435 823.138 662.041 Q826.216 666.625 826.216 675.375 Q826.216 684.101 823.138 688.708 Q820.082 693.291 814.272 693.291 Q808.462 693.291 805.383 688.708 Q802.328 684.101 802.328 675.375 Q802.328 666.625 805.383 662.041 Q808.462 657.435 814.272 657.435 Z" fill="#000000" fill-rule="evenodd" fill-opacity="1" /><path clip-path="url(#clip850)" d="M834.434 686.74 L839.318 686.74 L839.318 692.62 L834.434 692.62 L834.434 686.74 Z" fill="#000000" fill-rule="evenodd" fill-opacity="1" /><path clip-path="url(#clip850)" d="M853.531 688.685 L869.85 688.685 L869.85 692.62 L847.906 692.62 L847.906 688.685 Q850.568 685.93 855.151 681.3 Q859.758 676.648 860.938 675.305 Q863.184 672.782 864.063 671.046 Q864.966 669.287 864.966 667.597 Q864.966 664.842 863.022 663.106 Q861.1 661.37 857.999 661.37 Q855.8 661.37 853.346 662.134 Q850.915 662.898 848.138 664.449 L848.138 659.727 Q850.962 658.592 853.415 658.014 Q855.869 657.435 857.906 657.435 Q863.276 657.435 866.471 660.12 Q869.665 662.805 869.665 667.296 Q869.665 669.426 868.855 671.347 Q868.068 673.245 865.962 675.838 Q865.383 676.509 862.281 679.726 Q859.179 682.921 853.531 688.685 Z" fill="#000000" fill-rule="evenodd" fill-opacity="1" /><path clip-path="url(#clip850)" d="M1104.32 661.139 Q1100.71 661.139 1098.88 664.703 Q1097.07 668.245 1097.07 675.375 Q1097.07 682.481 1098.88 686.046 Q1100.71 689.587 1104.32 689.587 Q1107.95 689.587 1109.76 686.046 Q1111.59 682.481 1111.59 675.375 Q1111.59 668.245 1109.76 664.703 Q1107.95 661.139 1104.32 661.139 M1104.32 657.435 Q1110.13 657.435 1113.18 662.041 Q1116.26 666.625 1116.26 675.375 Q1116.26 684.101 1113.18 688.708 Q1110.13 693.291 1104.32 693.291 Q1098.51 693.291 1095.43 688.708 Q1092.37 684.101 1092.37 675.375 Q1092.37 666.625 1095.43 662.041 Q1098.51 657.435 1104.32 657.435 Z" fill="#000000" fill-rule="evenodd" fill-opacity="1" /><path clip-path="url(#clip850)" d="M1124.48 686.74 L1129.36 686.74 L1129.36 692.62 L1124.48 692.62 L1124.48 686.74 Z" fill="#000000" fill-rule="evenodd" fill-opacity="1" /><path clip-path="url(#clip850)" d="M1153.72 673.986 Q1157.07 674.703 1158.95 676.972 Q1160.85 679.24 1160.85 682.574 Q1160.85 687.689 1157.33 690.49 Q1153.81 693.291 1147.33 693.291 Q1145.15 693.291 1142.84 692.851 Q1140.54 692.435 1138.09 691.578 L1138.09 687.064 Q1140.03 688.199 1142.35 688.777 Q1144.66 689.356 1147.19 689.356 Q1151.59 689.356 1153.88 687.62 Q1156.19 685.884 1156.19 682.574 Q1156.19 679.518 1154.04 677.805 Q1151.91 676.069 1148.09 676.069 L1144.06 676.069 L1144.06 672.226 L1148.28 672.226 Q1151.72 672.226 1153.55 670.861 Q1155.38 669.472 1155.38 666.879 Q1155.38 664.217 1153.48 662.805 Q1151.61 661.37 1148.09 661.37 Q1146.17 661.37 1143.97 661.787 Q1141.77 662.203 1139.13 663.083 L1139.13 658.916 Q1141.79 658.176 1144.11 657.805 Q1146.45 657.435 1148.51 657.435 Q1153.83 657.435 1156.93 659.865 Q1160.03 662.273 1160.03 666.393 Q1160.03 669.263 1158.39 671.254 Q1156.75 673.222 1153.72 673.986 Z" fill="#000000" fill-rule="evenodd" fill-opacity="1" /><path clip-path="url(#clip850)" d="M703.296 736.775 Q702.611 740.174 701.689 742.124 Q700.187 745.102 697.684 745.102 Q695.945 745.102 694.627 744.127 Q693.336 743.125 692.888 741.465 Q692.387 742.124 691.939 742.572 Q691.518 743.02 690.701 743.705 Q689.884 744.364 688.777 744.733 Q687.697 745.102 686.459 745.102 Q685.51 745.102 684.64 744.917 Q683.771 744.759 682.849 744.311 Q681.953 743.837 681.294 743.125 Q680.662 742.414 680.24 741.255 Q679.818 740.095 679.818 738.62 Q679.818 736.775 680.53 734.272 Q681.268 731.768 682.954 727.289 Q683.876 724.917 683.876 723.6 Q683.876 722.994 683.744 722.599 Q683.613 722.203 683.349 722.072 Q683.112 721.913 682.954 721.887 Q682.796 721.834 682.532 721.834 Q680.899 721.834 679.476 723.495 Q678.053 725.155 677.078 728.527 Q676.867 729.186 676.735 729.344 Q676.604 729.502 676.208 729.502 Q675.55 729.476 675.55 728.949 Q675.55 728.738 675.787 727.921 Q676.024 727.078 676.577 725.84 Q677.157 724.575 677.947 723.442 Q678.738 722.282 679.976 721.466 Q681.241 720.649 682.69 720.649 Q684.667 720.649 685.879 721.94 Q687.117 723.205 687.117 725.076 Q687.117 726.235 686.195 728.475 Q683.27 736.248 683.27 739.489 Q683.27 743.89 686.617 743.89 Q687.723 743.89 688.751 743.442 Q689.805 742.994 690.49 742.361 Q691.175 741.729 691.702 741.044 Q692.256 740.359 692.493 739.911 Q692.756 739.463 692.783 739.357 L696.814 723.126 Q696.972 722.493 697.262 722.072 Q697.578 721.624 697.947 721.466 Q698.316 721.307 698.527 721.281 Q698.738 721.228 698.922 721.228 Q699.581 721.228 700.029 721.624 Q700.503 722.019 700.503 722.704 Q700.503 722.836 700.345 723.468 Q700.213 724.074 700.003 724.97 Q699.792 725.84 699.686 726.314 Q698.843 729.634 698.764 729.977 L697.262 735.8 Q697.183 736.143 696.92 737.249 Q696.682 738.356 696.551 738.936 Q696.419 739.489 696.287 740.253 Q696.182 740.991 696.182 741.413 Q696.182 742.73 696.577 743.31 Q696.972 743.89 697.842 743.89 Q698.659 743.89 699.291 743.336 Q699.95 742.757 700.451 741.65 Q700.951 740.517 701.241 739.595 Q701.531 738.672 701.9 737.223 Q702.032 736.591 702.137 736.432 Q702.269 736.248 702.638 736.248 Q703.296 736.248 703.296 736.775 Z" fill="#000000" fill-rule="evenodd" fill-opacity="1" /><polyline clip-path="url(#clip853)" style="stroke:#000000; stroke-linecap:butt; stroke-linejoin:round; stroke-width:2; stroke-opacity:0.1; fill:none" stroke-dasharray="1, 2" points="
  228.902,623.049 1152.76,623.049 
  "/>
<polyline clip-path="url(#clip853)" style="stroke:#000000; stroke-linecap:butt; stroke-linejoin:round; stroke-width:2; stroke-opacity:0.1; fill:none" stroke-dasharray="1, 2" points="
  228.902,483.29 1152.76,483.29 
  "/>
<polyline clip-path="url(#clip853)" style="stroke:#000000; stroke-linecap:butt; stroke-linejoin:round; stroke-width:2; stroke-opacity:0.1; fill:none" stroke-dasharray="1, 2" points="
  228.902,343.532 1152.76,343.532 
  "/>
<polyline clip-path="url(#clip853)" style="stroke:#000000; stroke-linecap:butt; stroke-linejoin:round; stroke-width:2; stroke-opacity:0.1; fill:none" stroke-dasharray="1, 2" points="
  228.902,203.774 1152.76,203.774 
  "/>
<polyline clip-path="url(#clip853)" style="stroke:#000000; stroke-linecap:butt; stroke-linejoin:round; stroke-width:2; stroke-opacity:0.1; fill:none" stroke-dasharray="1, 2" points="
  228.902,64.0151 1152.76,64.0151 
  "/>
<polyline clip-path="url(#clip850)" style="stroke:#000000; stroke-linecap:butt; stroke-linejoin:round; stroke-width:4; stroke-opacity:1; fill:none" points="
  228.902,639.82 228.902,47.2441 
  "/>
<polyline clip-path="url(#clip850)" style="stroke:#000000; stroke-linecap:butt; stroke-linejoin:round; stroke-width:4; stroke-opacity:1; fill:none" points="
  1152.76,639.82 1152.76,47.2441 
  "/>
<polyline clip-path="url(#clip850)" style="stroke:#000000; stroke-linecap:butt; stroke-linejoin:round; stroke-width:4; stroke-opacity:1; fill:none" points="
  228.902,623.049 247.8,623.049 
  "/>
<polyline clip-path="url(#clip850)" style="stroke:#000000; stroke-linecap:butt; stroke-linejoin:round; stroke-width:4; stroke-opacity:1; fill:none" points="
  228.902,483.29 247.8,483.29 
  "/>
<polyline clip-path="url(#clip850)" style="stroke:#000000; stroke-linecap:butt; stroke-linejoin:round; stroke-width:4; stroke-opacity:1; fill:none" points="
  228.902,343.532 247.8,343.532 
  "/>
<polyline clip-path="url(#clip850)" style="stroke:#000000; stroke-linecap:butt; stroke-linejoin:round; stroke-width:4; stroke-opacity:1; fill:none" points="
  228.902,203.774 247.8,203.774 
  "/>
<polyline clip-path="url(#clip850)" style="stroke:#000000; stroke-linecap:butt; stroke-linejoin:round; stroke-width:4; stroke-opacity:1; fill:none" points="
  228.902,64.0151 247.8,64.0151 
  "/>
<path clip-path="url(#clip850)" d="M123.565 608.848 Q119.953 608.848 118.125 612.412 Q116.319 615.954 116.319 623.084 Q116.319 630.19 118.125 633.755 Q119.953 637.296 123.565 637.296 Q127.199 637.296 129.004 633.755 Q130.833 630.19 130.833 623.084 Q130.833 615.954 129.004 612.412 Q127.199 608.848 123.565 608.848 M123.565 605.144 Q129.375 605.144 132.43 609.75 Q135.509 614.334 135.509 623.084 Q135.509 631.81 132.43 636.417 Q129.375 641 123.565 641 Q117.754 641 114.676 636.417 Q111.62 631.81 111.62 623.084 Q111.62 614.334 114.676 609.75 Q117.754 605.144 123.565 605.144 Z" fill="#000000" fill-rule="evenodd" fill-opacity="1" /><path clip-path="url(#clip850)" d="M143.726 634.449 L148.611 634.449 L148.611 640.329 L143.726 640.329 L143.726 634.449 Z" fill="#000000" fill-rule="evenodd" fill-opacity="1" /><path clip-path="url(#clip850)" d="M168.796 608.848 Q165.185 608.848 163.356 612.412 Q161.55 615.954 161.55 623.084 Q161.55 630.19 163.356 633.755 Q165.185 637.296 168.796 637.296 Q172.43 637.296 174.236 633.755 Q176.064 630.19 176.064 623.084 Q176.064 615.954 174.236 612.412 Q172.43 608.848 168.796 608.848 M168.796 605.144 Q174.606 605.144 177.661 609.75 Q180.74 614.334 180.74 623.084 Q180.74 631.81 177.661 636.417 Q174.606 641 168.796 641 Q162.986 641 159.907 636.417 Q156.851 631.81 156.851 623.084 Q156.851 614.334 159.907 609.75 Q162.986 605.144 168.796 605.144 Z" fill="#000000" fill-rule="evenodd" fill-opacity="1" /><path clip-path="url(#clip850)" d="M198.958 608.848 Q195.347 608.848 193.518 612.412 Q191.712 615.954 191.712 623.084 Q191.712 630.19 193.518 633.755 Q195.347 637.296 198.958 637.296 Q202.592 637.296 204.397 633.755 Q206.226 630.19 206.226 623.084 Q206.226 615.954 204.397 612.412 Q202.592 608.848 198.958 608.848 M198.958 605.144 Q204.768 605.144 207.823 609.75 Q210.902 614.334 210.902 623.084 Q210.902 631.81 207.823 636.417 Q204.768 641 198.958 641 Q193.147 641 190.069 636.417 Q187.013 631.81 187.013 623.084 Q187.013 614.334 190.069 609.75 Q193.147 605.144 198.958 605.144 Z" fill="#000000" fill-rule="evenodd" fill-opacity="1" /><path clip-path="url(#clip850)" d="M124.56 469.089 Q120.949 469.089 119.12 472.654 Q117.315 476.196 117.315 483.325 Q117.315 490.432 119.12 493.996 Q120.949 497.538 124.56 497.538 Q128.194 497.538 130 493.996 Q131.828 490.432 131.828 483.325 Q131.828 476.196 130 472.654 Q128.194 469.089 124.56 469.089 M124.56 465.385 Q130.37 465.385 133.426 469.992 Q136.504 474.575 136.504 483.325 Q136.504 492.052 133.426 496.658 Q130.37 501.242 124.56 501.242 Q118.75 501.242 115.671 496.658 Q112.616 492.052 112.616 483.325 Q112.616 474.575 115.671 469.992 Q118.75 465.385 124.56 465.385 Z" fill="#000000" fill-rule="evenodd" fill-opacity="1" /><path clip-path="url(#clip850)" d="M144.722 494.691 L149.606 494.691 L149.606 500.57 L144.722 500.57 L144.722 494.691 Z" fill="#000000" fill-rule="evenodd" fill-opacity="1" /><path clip-path="url(#clip850)" d="M163.819 496.635 L180.138 496.635 L180.138 500.57 L158.194 500.57 L158.194 496.635 Q160.856 493.881 165.439 489.251 Q170.046 484.598 171.226 483.256 Q173.472 480.733 174.351 478.996 Q175.254 477.237 175.254 475.547 Q175.254 472.793 173.31 471.057 Q171.388 469.321 168.287 469.321 Q166.087 469.321 163.634 470.084 Q161.203 470.848 158.425 472.399 L158.425 467.677 Q161.25 466.543 163.703 465.964 Q166.157 465.385 168.194 465.385 Q173.564 465.385 176.759 468.071 Q179.953 470.756 179.953 475.246 Q179.953 477.376 179.143 479.297 Q178.356 481.196 176.249 483.788 Q175.671 484.459 172.569 487.677 Q169.467 490.871 163.819 496.635 Z" fill="#000000" fill-rule="evenodd" fill-opacity="1" /><path clip-path="url(#clip850)" d="M189.999 466.01 L208.356 466.01 L208.356 469.946 L194.282 469.946 L194.282 478.418 Q195.3 478.071 196.319 477.908 Q197.337 477.723 198.356 477.723 Q204.143 477.723 207.522 480.895 Q210.902 484.066 210.902 489.482 Q210.902 495.061 207.43 498.163 Q203.958 501.242 197.638 501.242 Q195.462 501.242 193.194 500.871 Q190.948 500.501 188.541 499.76 L188.541 495.061 Q190.624 496.195 192.847 496.751 Q195.069 497.307 197.546 497.307 Q201.55 497.307 203.888 495.2 Q206.226 493.094 206.226 489.482 Q206.226 485.871 203.888 483.765 Q201.55 481.658 197.546 481.658 Q195.671 481.658 193.796 482.075 Q191.944 482.492 189.999 483.371 L189.999 466.01 Z" fill="#000000" fill-rule="evenodd" fill-opacity="1" /><path clip-path="url(#clip850)" d="M123.565 329.331 Q119.953 329.331 118.125 332.895 Q116.319 336.437 116.319 343.567 Q116.319 350.673 118.125 354.238 Q119.953 357.78 123.565 357.78 Q127.199 357.78 129.004 354.238 Q130.833 350.673 130.833 343.567 Q130.833 336.437 129.004 332.895 Q127.199 329.331 123.565 329.331 M123.565 325.627 Q129.375 325.627 132.43 330.233 Q135.509 334.817 135.509 343.567 Q135.509 352.293 132.43 356.9 Q129.375 361.483 123.565 361.483 Q117.754 361.483 114.676 356.9 Q111.62 352.293 111.62 343.567 Q111.62 334.817 114.676 330.233 Q117.754 325.627 123.565 325.627 Z" fill="#000000" fill-rule="evenodd" fill-opacity="1" /><path clip-path="url(#clip850)" d="M143.726 354.932 L148.611 354.932 L148.611 360.812 L143.726 360.812 L143.726 354.932 Z" fill="#000000" fill-rule="evenodd" fill-opacity="1" /><path clip-path="url(#clip850)" d="M158.842 326.252 L177.199 326.252 L177.199 330.187 L163.125 330.187 L163.125 338.659 Q164.143 338.312 165.162 338.15 Q166.18 337.965 167.199 337.965 Q172.986 337.965 176.365 341.136 Q179.745 344.307 179.745 349.724 Q179.745 355.303 176.273 358.405 Q172.8 361.483 166.481 361.483 Q164.305 361.483 162.037 361.113 Q159.791 360.743 157.384 360.002 L157.384 355.303 Q159.467 356.437 161.689 356.993 Q163.912 357.548 166.388 357.548 Q170.393 357.548 172.731 355.442 Q175.069 353.335 175.069 349.724 Q175.069 346.113 172.731 344.007 Q170.393 341.9 166.388 341.9 Q164.513 341.9 162.638 342.317 Q160.787 342.733 158.842 343.613 L158.842 326.252 Z" fill="#000000" fill-rule="evenodd" fill-opacity="1" /><path clip-path="url(#clip850)" d="M198.958 329.331 Q195.347 329.331 193.518 332.895 Q191.712 336.437 191.712 343.567 Q191.712 350.673 193.518 354.238 Q195.347 357.78 198.958 357.78 Q202.592 357.78 204.397 354.238 Q206.226 350.673 206.226 343.567 Q206.226 336.437 204.397 332.895 Q202.592 329.331 198.958 329.331 M198.958 325.627 Q204.768 325.627 207.823 330.233 Q210.902 334.817 210.902 343.567 Q210.902 352.293 207.823 356.9 Q204.768 361.483 198.958 361.483 Q193.147 361.483 190.069 356.9 Q187.013 352.293 187.013 343.567 Q187.013 334.817 190.069 330.233 Q193.147 325.627 198.958 325.627 Z" fill="#000000" fill-rule="evenodd" fill-opacity="1" /><path clip-path="url(#clip850)" d="M124.56 189.572 Q120.949 189.572 119.12 193.137 Q117.315 196.679 117.315 203.808 Q117.315 210.915 119.12 214.479 Q120.949 218.021 124.56 218.021 Q128.194 218.021 130 214.479 Q131.828 210.915 131.828 203.808 Q131.828 196.679 130 193.137 Q128.194 189.572 124.56 189.572 M124.56 185.869 Q130.37 185.869 133.426 190.475 Q136.504 195.058 136.504 203.808 Q136.504 212.535 133.426 217.142 Q130.37 221.725 124.56 221.725 Q118.75 221.725 115.671 217.142 Q112.616 212.535 112.616 203.808 Q112.616 195.058 115.671 190.475 Q118.75 185.869 124.56 185.869 Z" fill="#000000" fill-rule="evenodd" fill-opacity="1" /><path clip-path="url(#clip850)" d="M144.722 215.174 L149.606 215.174 L149.606 221.054 L144.722 221.054 L144.722 215.174 Z" fill="#000000" fill-rule="evenodd" fill-opacity="1" /><path clip-path="url(#clip850)" d="M158.611 186.494 L180.833 186.494 L180.833 188.484 L168.287 221.054 L163.402 221.054 L175.208 190.429 L158.611 190.429 L158.611 186.494 Z" fill="#000000" fill-rule="evenodd" fill-opacity="1" /><path clip-path="url(#clip850)" d="M189.999 186.494 L208.356 186.494 L208.356 190.429 L194.282 190.429 L194.282 198.901 Q195.3 198.554 196.319 198.392 Q197.337 198.206 198.356 198.206 Q204.143 198.206 207.522 201.378 Q210.902 204.549 210.902 209.966 Q210.902 215.544 207.43 218.646 Q203.958 221.725 197.638 221.725 Q195.462 221.725 193.194 221.354 Q190.948 220.984 188.541 220.243 L188.541 215.544 Q190.624 216.679 192.847 217.234 Q195.069 217.79 197.546 217.79 Q201.55 217.79 203.888 215.683 Q206.226 213.577 206.226 209.966 Q206.226 206.355 203.888 204.248 Q201.55 202.142 197.546 202.142 Q195.671 202.142 193.796 202.558 Q191.944 202.975 189.999 203.855 L189.999 186.494 Z" fill="#000000" fill-rule="evenodd" fill-opacity="1" /><path clip-path="url(#clip850)" d="M114.375 77.3599 L122.014 77.3599 L122.014 50.9943 L113.703 52.661 L113.703 48.4018 L121.967 46.7351 L126.643 46.7351 L126.643 77.3599 L134.282 77.3599 L134.282 81.2951 L114.375 81.2951 L114.375 77.3599 Z" fill="#000000" fill-rule="evenodd" fill-opacity="1" /><path clip-path="url(#clip850)" d="M143.726 75.4155 L148.611 75.4155 L148.611 81.2951 L143.726 81.2951 L143.726 75.4155 Z" fill="#000000" fill-rule="evenodd" fill-opacity="1" /><path clip-path="url(#clip850)" d="M168.796 49.8138 Q165.185 49.8138 163.356 53.3786 Q161.55 56.9202 161.55 64.0498 Q161.55 71.1563 163.356 74.7211 Q165.185 78.2627 168.796 78.2627 Q172.43 78.2627 174.236 74.7211 Q176.064 71.1563 176.064 64.0498 Q176.064 56.9202 174.236 53.3786 Q172.43 49.8138 168.796 49.8138 M168.796 46.1101 Q174.606 46.1101 177.661 50.7166 Q180.74 55.2999 180.74 64.0498 Q180.74 72.7766 177.661 77.3831 Q174.606 81.9664 168.796 81.9664 Q162.986 81.9664 159.907 77.3831 Q156.851 72.7766 156.851 64.0498 Q156.851 55.2999 159.907 50.7166 Q162.986 46.1101 168.796 46.1101 Z" fill="#000000" fill-rule="evenodd" fill-opacity="1" /><path clip-path="url(#clip850)" d="M198.958 49.8138 Q195.347 49.8138 193.518 53.3786 Q191.712 56.9202 191.712 64.0498 Q191.712 71.1563 193.518 74.7211 Q195.347 78.2627 198.958 78.2627 Q202.592 78.2627 204.397 74.7211 Q206.226 71.1563 206.226 64.0498 Q206.226 56.9202 204.397 53.3786 Q202.592 49.8138 198.958 49.8138 M198.958 46.1101 Q204.768 46.1101 207.823 50.7166 Q210.902 55.2999 210.902 64.0498 Q210.902 72.7766 207.823 77.3831 Q204.768 81.9664 198.958 81.9664 Q193.147 81.9664 190.069 77.3831 Q187.013 72.7766 187.013 64.0498 Q187.013 55.2999 190.069 50.7166 Q193.147 46.1101 198.958 46.1101 Z" fill="#000000" fill-rule="evenodd" fill-opacity="1" /><path clip-path="url(#clip850)" d="M53.9094 577.203 L58.3886 577.203 Q57.2688 579.234 56.7219 581.291 Q56.149 583.322 56.149 585.406 Q56.149 590.067 59.1177 592.645 Q62.0604 595.223 67.3989 595.223 Q72.7375 595.223 75.7062 592.645 Q78.6489 590.067 78.6489 585.406 Q78.6489 583.322 78.102 581.291 Q77.5291 579.234 76.4093 577.203 L80.8364 577.203 Q81.7739 579.208 82.2426 581.369 Q82.7114 583.505 82.7114 585.927 Q82.7114 592.515 78.5708 596.395 Q74.4302 600.275 67.3989 600.275 Q60.2636 600.275 56.175 596.369 Q52.0865 592.437 52.0865 585.614 Q52.0865 583.4 52.5553 581.291 Q52.998 579.182 53.9094 577.203 Z" fill="#000000" fill-rule="evenodd" fill-opacity="1" /><path clip-path="url(#clip850)" d="M84.6645 556.734 Q89.8728 558.765 91.4613 560.692 Q93.0498 562.619 93.0498 565.848 L93.0498 569.677 L89.0395 569.677 L89.0395 566.864 Q89.0395 564.885 88.102 563.791 Q87.1645 562.697 83.6749 561.369 L81.4874 560.51 L52.7896 572.307 L52.7896 567.229 L75.602 558.114 L52.7896 549 L52.7896 543.922 L84.6645 556.734 Z" fill="#000000" fill-rule="evenodd" fill-opacity="1" /><path clip-path="url(#clip850)" d="M44.5084 532.567 L52.7896 532.567 L52.7896 522.698 L56.5136 522.698 L56.5136 532.567 L72.3468 532.567 Q75.9145 532.567 76.9301 531.604 Q77.9458 530.614 77.9458 527.62 L77.9458 522.698 L81.9562 522.698 L81.9562 527.62 Q81.9562 533.166 79.8989 535.276 Q77.8156 537.385 72.3468 537.385 L56.5136 537.385 L56.5136 540.901 L52.7896 540.901 L52.7896 537.385 L44.5084 537.385 L44.5084 532.567 Z" fill="#000000" fill-rule="evenodd" fill-opacity="1" /><path clip-path="url(#clip850)" d="M56.149 505.094 Q56.149 508.948 59.1698 511.187 Q62.1646 513.427 67.3989 513.427 Q72.6333 513.427 75.6541 511.213 Q78.6489 508.974 78.6489 505.094 Q78.6489 501.265 75.6281 499.026 Q72.6072 496.786 67.3989 496.786 Q62.2167 496.786 59.1959 499.026 Q56.149 501.265 56.149 505.094 M52.0865 505.094 Q52.0865 498.844 56.149 495.276 Q60.2115 491.708 67.3989 491.708 Q74.5604 491.708 78.6489 495.276 Q82.7114 498.844 82.7114 505.094 Q82.7114 511.37 78.6489 514.937 Q74.5604 518.479 67.3989 518.479 Q60.2115 518.479 56.149 514.937 Q52.0865 511.37 52.0865 505.094 Z" fill="#000000" fill-rule="evenodd" fill-opacity="1" /><path clip-path="url(#clip850)" d="M44.5084 479.026 L52.7896 479.026 L52.7896 469.156 L56.5136 469.156 L56.5136 479.026 L72.3468 479.026 Q75.9145 479.026 76.9301 478.062 Q77.9458 477.073 77.9458 474.078 L77.9458 469.156 L81.9562 469.156 L81.9562 474.078 Q81.9562 479.625 79.8989 481.734 Q77.8156 483.844 72.3468 483.844 L56.5136 483.844 L56.5136 487.359 L52.7896 487.359 L52.7896 483.844 L44.5084 483.844 L44.5084 479.026 Z" fill="#000000" fill-rule="evenodd" fill-opacity="1" /><path clip-path="url(#clip850)" d="M84.6645 450.719 Q89.8728 452.75 91.4613 454.677 Q93.0498 456.604 93.0498 459.833 L93.0498 463.662 L89.0395 463.662 L89.0395 460.849 Q89.0395 458.87 88.102 457.776 Q87.1645 456.682 83.6749 455.354 L81.4874 454.495 L52.7896 466.292 L52.7896 461.214 L75.602 452.099 L52.7896 442.985 L52.7896 437.906 L84.6645 450.719 Z" fill="#000000" fill-rule="evenodd" fill-opacity="1" /><path clip-path="url(#clip850)" d="M77.5812 426.657 L93.0498 426.657 L93.0498 431.474 L52.7896 431.474 L52.7896 426.657 L57.2167 426.657 Q54.6126 425.146 53.3626 422.854 Q52.0865 420.537 52.0865 417.334 Q52.0865 412.021 56.3053 408.714 Q60.524 405.381 67.3989 405.381 Q74.2739 405.381 78.4926 408.714 Q82.7114 412.021 82.7114 417.334 Q82.7114 420.537 81.4614 422.854 Q80.1853 425.146 77.5812 426.657 M67.3989 410.355 Q62.1125 410.355 59.1177 412.542 Q56.0969 414.703 56.0969 418.506 Q56.0969 422.308 59.1177 424.495 Q62.1125 426.657 67.3989 426.657 Q72.6854 426.657 75.7062 424.495 Q78.701 422.308 78.701 418.506 Q78.701 414.703 75.7062 412.542 Q72.6854 410.355 67.3989 410.355 Z" fill="#000000" fill-rule="evenodd" fill-opacity="1" /><path clip-path="url(#clip850)" d="M66.175 372.49 L68.5187 372.49 L68.5187 394.521 Q73.4666 394.209 76.0708 391.553 Q78.6489 388.87 78.6489 384.105 Q78.6489 381.344 77.9718 378.766 Q77.2947 376.162 75.9406 373.61 L80.4718 373.61 Q81.5655 376.188 82.1384 378.896 Q82.7114 381.605 82.7114 384.391 Q82.7114 391.37 78.6489 395.459 Q74.5864 399.521 67.6594 399.521 Q60.4979 399.521 56.3053 395.667 Q52.0865 391.787 52.0865 385.224 Q52.0865 379.339 55.8886 375.928 Q59.6646 372.49 66.175 372.49 M64.7687 377.282 Q60.8365 377.334 58.4927 379.495 Q56.149 381.631 56.149 385.172 Q56.149 389.183 58.4146 391.605 Q60.6802 394 64.7948 394.365 L64.7687 377.282 Z" fill="#000000" fill-rule="evenodd" fill-opacity="1" /><path clip-path="url(#clip850)" d="M41.4355 332.907 L45.4199 332.907 L45.4199 337.49 Q45.4199 340.068 46.4616 341.084 Q47.5032 342.074 50.2115 342.074 L52.7896 342.074 L52.7896 334.183 L56.5136 334.183 L56.5136 342.074 L81.9562 342.074 L81.9562 346.891 L56.5136 346.891 L56.5136 351.475 L52.7896 351.475 L52.7896 346.891 L50.7584 346.891 Q45.8886 346.891 43.6751 344.626 Q41.4355 342.36 41.4355 337.438 L41.4355 332.907 Z" fill="#000000" fill-rule="evenodd" fill-opacity="1" /><path clip-path="url(#clip850)" d="M57.2688 311.996 Q56.8 312.803 56.5917 313.767 Q56.3573 314.704 56.3573 315.85 Q56.3573 319.912 59.0136 322.1 Q61.6438 324.261 66.5917 324.261 L81.9562 324.261 L81.9562 329.079 L52.7896 329.079 L52.7896 324.261 L57.3209 324.261 Q54.6646 322.751 53.3886 320.329 Q52.0865 317.907 52.0865 314.444 Q52.0865 313.949 52.1647 313.35 Q52.2167 312.751 52.3469 312.022 L57.2688 311.996 Z" fill="#000000" fill-rule="evenodd" fill-opacity="1" /><path clip-path="url(#clip850)" d="M66.175 283.194 L68.5187 283.194 L68.5187 305.225 Q73.4666 304.912 76.0708 302.256 Q78.6489 299.574 78.6489 294.808 Q78.6489 292.048 77.9718 289.47 Q77.2947 286.866 75.9406 284.314 L80.4718 284.314 Q81.5655 286.892 82.1384 289.6 Q82.7114 292.308 82.7114 295.095 Q82.7114 302.074 78.6489 306.162 Q74.5864 310.225 67.6594 310.225 Q60.4979 310.225 56.3053 306.371 Q52.0865 302.491 52.0865 295.928 Q52.0865 290.043 55.8886 286.631 Q59.6646 283.194 66.175 283.194 M64.7687 287.985 Q60.8365 288.037 58.4927 290.199 Q56.149 292.334 56.149 295.876 Q56.149 299.886 58.4146 302.308 Q60.6802 304.704 64.7948 305.069 L64.7687 287.985 Z" fill="#000000" fill-rule="evenodd" fill-opacity="1" /><path clip-path="url(#clip850)" d="M67.3989 272.465 Q72.6854 272.465 75.7062 270.303 Q78.701 268.116 78.701 264.314 Q78.701 260.512 75.7062 258.324 Q72.6854 256.137 67.3989 256.137 Q62.1125 256.137 59.1177 258.324 Q56.0969 260.512 56.0969 264.314 Q56.0969 268.116 59.1177 270.303 Q62.1125 272.465 67.3989 272.465 M77.5812 256.137 Q80.1853 257.647 81.4614 259.965 Q82.7114 262.256 82.7114 265.486 Q82.7114 270.772 78.4926 274.105 Q74.2739 277.413 67.3989 277.413 Q60.524 277.413 56.3053 274.105 Q52.0865 270.772 52.0865 265.486 Q52.0865 262.256 53.3626 259.965 Q54.6126 257.647 57.2167 256.137 L52.7896 256.137 L52.7896 251.345 L93.0498 251.345 L93.0498 256.137 L77.5812 256.137 Z" fill="#000000" fill-rule="evenodd" fill-opacity="1" /><path clip-path="url(#clip850)" d="M70.4458 241.97 L52.7896 241.97 L52.7896 237.178 L70.2635 237.178 Q74.4041 237.178 76.4874 235.564 Q78.5447 233.949 78.5447 230.72 Q78.5447 226.84 76.0708 224.6 Q73.5968 222.335 69.326 222.335 L52.7896 222.335 L52.7896 217.543 L81.9562 217.543 L81.9562 222.335 L77.477 222.335 Q80.1333 224.079 81.4353 226.397 Q82.7114 228.689 82.7114 231.736 Q82.7114 236.762 79.5864 239.366 Q76.4614 241.97 70.4458 241.97 M52.0865 229.913 L52.0865 229.913 Z" fill="#000000" fill-rule="evenodd" fill-opacity="1" /><path clip-path="url(#clip850)" d="M66.175 182.726 L68.5187 182.726 L68.5187 204.757 Q73.4666 204.444 76.0708 201.788 Q78.6489 199.106 78.6489 194.34 Q78.6489 191.58 77.9718 189.002 Q77.2947 186.397 75.9406 183.845 L80.4718 183.845 Q81.5655 186.423 82.1384 189.132 Q82.7114 191.84 82.7114 194.627 Q82.7114 201.606 78.6489 205.694 Q74.5864 209.757 67.6594 209.757 Q60.4979 209.757 56.3053 205.902 Q52.0865 202.022 52.0865 195.46 Q52.0865 189.574 55.8886 186.163 Q59.6646 182.726 66.175 182.726 M64.7687 187.517 Q60.8365 187.569 58.4927 189.731 Q56.149 191.866 56.149 195.408 Q56.149 199.418 58.4146 201.84 Q60.6802 204.236 64.7948 204.6 L64.7687 187.517 Z" fill="#000000" fill-rule="evenodd" fill-opacity="1" /><path clip-path="url(#clip850)" d="M64.3521 150.616 L81.9562 150.616 L81.9562 155.408 L64.5083 155.408 Q60.3677 155.408 58.3105 157.023 Q56.2532 158.637 56.2532 161.866 Q56.2532 165.746 58.7271 167.986 Q61.2011 170.226 65.4719 170.226 L81.9562 170.226 L81.9562 175.043 L52.7896 175.043 L52.7896 170.226 L57.3209 170.226 Q54.6907 168.507 53.3886 166.189 Q52.0865 163.845 52.0865 160.799 Q52.0865 155.773 55.2115 153.194 Q58.3105 150.616 64.3521 150.616 Z" fill="#000000" fill-rule="evenodd" fill-opacity="1" /><path clip-path="url(#clip850)" d="M53.9094 120.07 L58.3886 120.07 Q57.2688 122.101 56.7219 124.158 Q56.149 126.189 56.149 128.273 Q56.149 132.934 59.1177 135.512 Q62.0604 138.09 67.3989 138.09 Q72.7375 138.09 75.7062 135.512 Q78.6489 132.934 78.6489 128.273 Q78.6489 126.189 78.102 124.158 Q77.5291 122.101 76.4093 120.07 L80.8364 120.07 Q81.7739 122.075 82.2426 124.236 Q82.7114 126.372 82.7114 128.794 Q82.7114 135.382 78.5708 139.262 Q74.4302 143.142 67.3989 143.142 Q60.2636 143.142 56.175 139.236 Q52.0865 135.304 52.0865 128.481 Q52.0865 126.268 52.5553 124.158 Q52.998 122.049 53.9094 120.07 Z" fill="#000000" fill-rule="evenodd" fill-opacity="1" /><path clip-path="url(#clip850)" d="M84.6645 99.601 Q89.8728 101.632 91.4613 103.559 Q93.0498 105.486 93.0498 108.716 L93.0498 112.544 L89.0395 112.544 L89.0395 109.731 Q89.0395 107.752 88.102 106.658 Q87.1645 105.564 83.6749 104.236 L81.4874 103.377 L52.7896 115.174 L52.7896 110.096 L75.602 100.981 L52.7896 91.8667 L52.7896 86.7886 L84.6645 99.601 Z" fill="#000000" fill-rule="evenodd" fill-opacity="1" /><polyline clip-path="url(#clip853)" style="stroke:#009af9; stroke-linecap:butt; stroke-linejoin:round; stroke-width:4; stroke-opacity:1; fill:none" points="
  255.049,64.0151 284.101,64.0733 313.153,64.2581 342.205,64.5863 371.257,65.0783 400.309,65.758 429.361,66.6546 458.413,67.804 487.465,69.2508 516.517,71.0524 
  545.569,73.2838 574.621,76.0469 603.673,79.486 632.725,83.8184 661.777,89.4004 690.829,96.8994 719.881,107.918 748.933,130.638 777.985,623.049 807.037,623.049 
  836.089,623.049 865.141,623.049 894.193,623.049 923.245,623.049 952.297,623.049 981.349,623.049 1010.4,623.049 1039.45,623.049 1068.51,623.049 1097.56,623.049 
  1126.61,623.049 
  "/>
<polyline clip-path="url(#clip853)" style="stroke:#e26f46; stroke-linecap:butt; stroke-linejoin:round; stroke-width:4; stroke-opacity:1; fill:none" points="
  255.049,623.049 284.101,623.049 313.153,623.049 342.205,623.049 371.257,623.049 400.309,623.049 429.361,623.049 458.413,623.049 487.465,623.049 516.517,623.049 
  545.569,623.049 574.621,623.049 603.673,623.049 632.725,623.049 661.777,623.049 690.829,623.049 719.881,623.049 748.933,623.049 777.985,623.049 807.037,623.049 
  836.089,623.049 865.141,623.049 894.193,623.049 923.245,623.049 952.297,623.049 981.349,623.049 1010.4,623.049 1039.45,623.049 1068.51,623.049 1097.56,623.049 
  1126.61,623.049 
  "/>
<polyline clip-path="url(#clip853)" style="stroke:#3da44d; stroke-linecap:butt; stroke-linejoin:round; stroke-width:4; stroke-opacity:1; fill:none" points="
  255.049,623.049 284.101,622.991 313.153,622.806 342.205,622.478 371.257,621.986 400.309,621.306 429.361,620.409 458.413,619.26 487.465,617.813 516.517,616.012 
  545.569,613.78 574.621,611.017 603.673,607.578 632.725,603.246 661.777,597.664 690.829,590.164 719.881,579.146 748.933,556.426 777.985,64.0151 807.037,64.0151 
  836.089,64.0151 865.141,64.0151 894.193,64.0151 923.245,64.0151 952.297,64.0151 981.349,64.0151 1010.4,64.0151 1039.45,64.0151 1068.51,64.0151 1097.56,64.0151 
  1126.61,64.0151 
  "/>
<polyline clip-path="url(#clip853)" style="stroke:#000000; stroke-linecap:butt; stroke-linejoin:round; stroke-width:4; stroke-opacity:1; fill:none" stroke-dasharray="16, 10" points="
  753.503,1232.4 753.503,-545.332 
  "/>
</svg>
